<svg width="56" height="86" viewBox="0 0 56 86" fill="none" xmlns="http://www.w3.org/2000/svg">
<path d="M49.9903 42.0667C48.7197 40.7775 47.2111 39.7547 45.5507 39.0569C43.8903 38.3592 42.1106 38 40.3133 38C38.516 38 36.7363 38.3592 35.0759 39.0569C33.4154 39.7547 31.9069 40.7775 30.6363 42.0667L27.9993 44.7412L25.3624 42.0667C22.7959 39.4637 19.315 38.0013 15.6854 38.0013C12.0558 38.0013 8.57486 39.4637 6.00836 42.0667C3.44185 44.6698 2 48.2002 2 51.8814C2 55.5627 3.44185 59.0931 6.00836 61.6961L8.64528 64.3706L27.9993 84L47.3534 64.3706L49.9903 61.6961C51.2615 60.4075 52.2699 58.8774 52.9579 57.1934C53.6459 55.5093 54 53.7043 54 51.8814C54 50.0586 53.6459 48.2535 52.9579 46.5695C52.2699 44.8855 51.2615 43.3554 49.9903 42.0667V42.0667Z" stroke="#FF3939" stroke-width="3" stroke-linecap="round" stroke-linejoin="round"/>
<path d="M49.9903 31.0667C48.7197 29.7775 47.2111 28.7547 45.5507 28.0569C43.8903 27.3592 42.1106 27 40.3133 27C38.516 27 36.7363 27.3592 35.0759 28.0569C33.4154 28.7547 31.9069 29.7775 30.6363 31.0667L27.9993 33.7412L25.3624 31.0667C22.7959 28.4637 19.315 27.0013 15.6854 27.0013C12.0558 27.0013 8.57486 28.4637 6.00836 31.0667C3.44185 33.6698 2 37.2002 2 40.8814C2 44.5627 3.44185 48.0931 6.00836 50.6961L8.64528 53.3706L27.9993 73L47.3534 53.3706L49.9903 50.6961C51.2615 49.4075 52.2699 47.8774 52.9579 46.1934C53.6459 44.5093 54 42.7043 54 40.8814C54 39.0586 53.6459 37.2535 52.9579 35.5695C52.2699 33.8855 51.2615 32.3554 49.9903 31.0667V31.0667Z" stroke="#FF3939" stroke-width="3" stroke-linecap="round" stroke-linejoin="round"/>
<path d="M49.9903 18.0667C48.7197 16.7775 47.2111 15.7547 45.5507 15.0569C43.8903 14.3592 42.1106 14 40.3133 14C38.516 14 36.7363 14.3592 35.0759 15.0569C33.4154 15.7547 31.9069 16.7775 30.6363 18.0667L27.9993 20.7412L25.3624 18.0667C22.7959 15.4637 19.315 14.0013 15.6854 14.0013C12.0558 14.0013 8.57486 15.4637 6.00836 18.0667C3.44185 20.6698 2 24.2002 2 27.8814C2 31.5627 3.44185 35.0931 6.00836 37.6961L8.64528 40.3706L27.9993 60L47.3534 40.3706L49.9903 37.6961C51.2615 36.4075 52.2699 34.8774 52.9579 33.1934C53.6459 31.5093 54 29.7043 54 27.8814C54 26.0586 53.6459 24.2535 52.9579 22.5695C52.2699 20.8855 51.2615 19.3554 49.9903 18.0667V18.0667Z" stroke="#FF3939" stroke-width="3" stroke-linecap="round" stroke-linejoin="round"/>
<path d="M49.9903 5.06673C48.7197 3.77746 47.2111 2.75472 45.5507 2.05693C43.8903 1.35915 42.1106 1 40.3133 1C38.516 1 36.7363 1.35915 35.0759 2.05693C33.4154 2.75472 31.9069 3.77746 30.6363 5.06673L27.9993 7.74118L25.3624 5.06673C22.7959 2.46371 19.315 1.00135 15.6854 1.00135C12.0558 1.00135 8.57486 2.46371 6.00836 5.06673C3.44185 7.66976 2 11.2002 2 14.8814C2 18.5627 3.44185 22.0931 6.00836 24.6961L8.64528 27.3706L27.9993 47L47.3534 27.3706L49.9903 24.6961C51.2615 23.4075 52.2699 21.8774 52.9579 20.1934C53.6459 18.5093 54 16.7043 54 14.8814C54 13.0586 53.6459 11.2535 52.9579 9.5695C52.2699 7.88546 51.2615 6.3554 49.9903 5.06673Z" fill="#FF3939" stroke="#FF3939" stroke-linecap="round" stroke-linejoin="round"/>
</svg>
